<svg xmlns="http://www.w3.org/2000/svg" id="flowchart-svg" width="1100" height="320" viewBox="0 0 1100 320" class="max-w-full max-h-full"><rect width="100%" height="100%" fill="#f9fafb"/><defs><linearGradient id="blueGradient" x1="0%" y1="0%" x2="0%" y2="100%"><stop offset="0%" stop-color="#6366F1" stop-opacity="0.1"/><stop offset="100%" stop-color="#6366F1" stop-opacity="0.05"/></linearGradient><linearGradient id="pinkGradient" x1="0%" y1="0%" x2="0%" y2="100%"><stop offset="0%" stop-color="#EC4899" stop-opacity="0.1"/><stop offset="100%" stop-color="#EC4899" stop-opacity="0.05"/></linearGradient><linearGradient id="orangeGradient" x1="0%" y1="0%" x2="0%" y2="100%"><stop offset="0%" stop-color="#F59E0B" stop-opacity="0.1"/><stop offset="100%" stop-color="#F59E0B" stop-opacity="0.05"/></linearGradient><linearGradient id="purpleGradient" x1="0%" y1="0%" x2="0%" y2="100%"><stop offset="0%" stop-color="#8B5CF6" stop-opacity="0.1"/><stop offset="100%" stop-color="#8B5CF6" stop-opacity="0.05"/></linearGradient><linearGradient id="redGradient" x1="0%" y1="0%" x2="0%" y2="100%"><stop offset="0%" stop-color="#EF4444" stop-opacity="0.1"/><stop offset="100%" stop-color="#EF4444" stop-opacity="0.05"/></linearGradient><linearGradient id="grayGradient" x1="0%" y1="0%" x2="0%" y2="100%"><stop offset="0%" stop-color="#6B7280" stop-opacity="0.1"/><stop offset="100%" stop-color="#6B7280" stop-opacity="0.05"/></linearGradient><filter id="softShadow" x="-50%" y="-50%" width="200%" height="200%"><feDropShadow dx="0" dy="2" stdDeviation="3" flood-color="#000" flood-opacity="0.1"/></filter></defs><path d="M 125 150 C 152 150, 144 150, 175 150" stroke="#6366F1" stroke-width="2.5" fill="none" stroke-linecap="round" class="opacity-70"/><path d="M 265 150 C 292 143, 284 129, 315 80" stroke="#EC4899" stroke-width="2.5" fill="none" stroke-linecap="round" class="opacity-70"/><path d="M 265 150 C 292 150, 284 150, 315 150" stroke="#EC4899" stroke-width="2.5" fill="none" stroke-linecap="round" class="opacity-70"/><path d="M 265 150 C 292 157, 284 171, 315 220" stroke="#EC4899" stroke-width="2.5" fill="none" stroke-linecap="round" class="opacity-70"/><path d="M 405 80 C 438 87, 436 101, 475 150" stroke="#EC4899" stroke-width="2.5" fill="none" stroke-linecap="round" class="opacity-70"/><path d="M 405 150 C 438 150, 436 150, 475 150" stroke="#EC4899" stroke-width="2.5" fill="none" stroke-linecap="round" class="opacity-70"/><path d="M 405 220 C 438 213, 436 199, 475 150" stroke="#EC4899" stroke-width="2.5" fill="none" stroke-linecap="round" class="opacity-70"/><path d="M 565 150 C 598 145, 596 135, 635 100" stroke="#8B5CF6" stroke-width="2.5" fill="none" stroke-linecap="round" class="opacity-70"/><path d="M 565 150 C 598 150, 596 150, 635 150" stroke="#8B5CF6" stroke-width="2.5" fill="none" stroke-linecap="round" class="opacity-70"/><path d="M 565 150 C 598 155, 596 165, 635 200" stroke="#EF4444" stroke-width="2.5" fill="none" stroke-linecap="round" class="opacity-70"/><path d="M 725 100 C 752 105, 744 115, 775 150" stroke="#F59E0B" stroke-width="2.5" fill="none" stroke-linecap="round" class="opacity-70"/><path d="M 725 150 C 752 150, 744 150, 775 150" stroke="#F59E0B" stroke-width="2.5" fill="none" stroke-linecap="round" class="opacity-70"/><path d="M 725 200 C 752 195, 744 185, 775 150" stroke="#F59E0B" stroke-width="2.5" fill="none" stroke-linecap="round" class="opacity-70"/><path d="M 865 150 C 892 145, 884 135, 915 100" stroke="#6B7280" stroke-width="2.5" fill="none" stroke-linecap="round" class="opacity-70"/><path d="M 865 150 C 892 155, 884 165, 915 200" stroke="#6B7280" stroke-width="2.5" fill="none" stroke-linecap="round" class="opacity-70"/><g><rect x="45" y="130" width="70" height="40" rx="20" ry="20" fill="url(#blueGradient)" filter="none"/><rect x="45" y="130" width="70" height="40" rx="20" ry="20" fill="none" stroke="#6366F1" stroke-width="2" class="opacity-60"/><text x="80" y="153" text-anchor="middle" fill="#6366F1" font-size="12" font-weight="500" class="select-none"><tspan x="80" dy="0">Goto URL</tspan></text></g><g><rect x="185" y="130" width="70" height="40" rx="20" ry="20" fill="url(#grayGradient)" filter="none"/><rect x="185" y="130" width="70" height="40" rx="20" ry="20" fill="none" stroke="#1F2937" stroke-width="2" class="opacity-60"/><text x="220" y="153" text-anchor="middle" fill="#1F2937" font-size="12" font-weight="500" class="select-none"><tspan x="220" dy="0">Login</tspan></text></g><g><rect x="325" y="60" width="70" height="40" rx="20" ry="20" fill="url(#pinkGradient)" filter="none"/><rect x="325" y="60" width="70" height="40" rx="20" ry="20" fill="none" stroke="#EC4899" stroke-width="2" class="opacity-60"/><text x="360" y="83" text-anchor="middle" fill="#EC4899" font-size="12" font-weight="500" class="select-none"><tspan x="360" dy="0">Type</tspan></text></g><g><rect x="325" y="130" width="70" height="40" rx="20" ry="20" fill="url(#pinkGradient)" filter="none"/><rect x="325" y="130" width="70" height="40" rx="20" ry="20" fill="none" stroke="#EC4899" stroke-width="2" class="opacity-60"/><text x="360" y="153" text-anchor="middle" fill="#EC4899" font-size="12" font-weight="500" class="select-none"><tspan x="360" dy="0">Click</tspan></text></g><g><rect x="325" y="200" width="70" height="40" rx="20" ry="20" fill="url(#pinkGradient)" filter="none"/><rect x="325" y="200" width="70" height="40" rx="20" ry="20" fill="none" stroke="#EC4899" stroke-width="2" class="opacity-60"/><text x="360" y="223" text-anchor="middle" fill="#EC4899" font-size="12" font-weight="500" class="select-none"><tspan x="360" dy="0">Select</tspan></text></g><g><rect x="470" y="130" width="100" height="40" rx="20" ry="20" fill="url(#orangeGradient)" filter="url(#softShadow)"/><rect x="470" y="130" width="100" height="40" rx="20" ry="20" fill="none" stroke="#F59E0B" stroke-width="2.5" class="opacity-80"/><rect x="470" y="130" width="100" height="40" rx="20" ry="20" fill="none" stroke="#F59E0B" stroke-width="1" class="opacity-30" stroke-dasharray="3,3"/><text x="520" y="153" text-anchor="middle" fill="#F59E0B" font-size="13" font-weight="600" class="select-none"><tspan x="520" dy="0">Smart step</tspan></text></g><g><rect x="645" y="80" width="70" height="40" rx="20" ry="20" fill="url(#purpleGradient)" filter="none"/><rect x="645" y="80" width="70" height="40" rx="20" ry="20" fill="none" stroke="#8B5CF6" stroke-width="2" class="opacity-60"/><text x="680" y="103" text-anchor="middle" fill="#8B5CF6" font-size="12" font-weight="500" class="select-none"><tspan x="680" dy="0">Extract</tspan></text></g><g><rect x="645" y="130" width="70" height="40" rx="20" ry="20" fill="url(#purpleGradient)" filter="none"/><rect x="645" y="130" width="70" height="40" rx="20" ry="20" fill="none" stroke="#8B5CF6" stroke-width="2" class="opacity-60"/><text x="680" y="153" text-anchor="middle" fill="#8B5CF6" font-size="12" font-weight="500" class="select-none"><tspan x="680" dy="0">Filter</tspan></text></g><g><rect x="645" y="180" width="70" height="40" rx="20" ry="20" fill="url(#redGradient)" filter="none"/><rect x="645" y="180" width="70" height="40" rx="20" ry="20" fill="none" stroke="#EF4444" stroke-width="2" class="opacity-60"/><text x="680" y="203" text-anchor="middle" fill="#EF4444" font-size="12" font-weight="500" class="select-none"><tspan x="680" dy="0">Loop</tspan></text></g><g><rect x="785" y="130" width="70" height="40" rx="20" ry="20" fill="url(#orangeGradient)" filter="none"/><rect x="785" y="130" width="70" height="40" rx="20" ry="20" fill="none" stroke="#F59E0B" stroke-width="2" class="opacity-60"/><text x="820" y="153" text-anchor="middle" fill="#F59E0B" font-size="12" font-weight="500" class="select-none"><tspan x="820" dy="0">Export</tspan></text></g><g><rect x="920" y="75" width="80" height="50" rx="25" ry="25" fill="url(#grayGradient)" filter="none"/><rect x="920" y="75" width="80" height="50" rx="25" ry="25" fill="none" stroke="#6B7280" stroke-width="1.5" class="opacity-60"/><text x="960" y="97" text-anchor="middle" fill="#6B7280" font-size="12" font-weight="500" class="select-none"><tspan x="960" dy="0">More</tspan><tspan x="960" dy="14">actions</tspan></text></g><g><rect x="920" y="175" width="80" height="50" rx="25" ry="25" fill="url(#grayGradient)" filter="none"/><rect x="920" y="175" width="80" height="50" rx="25" ry="25" fill="none" stroke="#6B7280" stroke-width="1.5" class="opacity-60"/><text x="960" y="203" text-anchor="middle" fill="#6B7280" font-size="12" font-weight="500" class="select-none"><tspan x="960" dy="0">Finish</tspan></text></g></svg>